<?xml version="1.0" encoding="UTF-8"?>
<svg id="Layer_1" data-name="Layer 1" xmlns="http://www.w3.org/2000/svg" viewBox="0 0 46.35 64.61">
  <defs>
    <style>
      .cls-1 {
        fill: #55e6a5;
        stroke-width: 0px;
      }
    </style>
  </defs>
  <g>
    <path class="cls-1" d="M17.55,34.85v.68c1.67.02,3.23.16,4.68.4v-2.73c-1.37.99-2.93,1.54-4.68,1.65ZM30.9,21.98c-.83.36-1.68.61-2.55.77-.96.17-1.86.28-2.7.33.03.23.05.46.07.7,1.41.05,2.88.2,4.4.45.35.06.7.13,1.05.21v-.04c0-.85-.09-1.65-.27-2.42ZM21.59,50.4h.64v-2.59h-.57c0,.86-.03,1.72-.07,2.59ZM17.55,35.53c1.67.02,3.23.16,4.68.4v-2.73c-1.37.99-2.93,1.54-4.68,1.65v.68ZM19.25,1.69c.11.36.18.57.18.61h2.8V0h-3.53c.25.77.42,1.33.55,1.69ZM17.55,34.85v.68c1.67.02,3.23.16,4.68.4v-2.73c-1.37.99-2.93,1.54-4.68,1.65ZM17.55,0v50.4h4.68V0h-4.68ZM17.55,45.14c0,1.25-.45,2.32-1.36,3.21-.54.53-1.14.9-1.8,1.1-.45.16-.93.23-1.44.23h-.87l-.07.72h5.76v-5.26h-.22ZM12.01,0l.07.72h.87c1.24,0,2.32.44,3.24,1.33.91.89,1.36,1.96,1.36,3.2h.22V0h-5.76Z"/>
    <path class="cls-1" d="M46.35,36.86c0,2.69-.65,5.06-1.94,7.09-1.09,1.72-2.61,3.11-4.55,4.17-.37.21-.76.41-1.17.59-1.29.58-2.71,1-4.26,1.28-1.49.28-3.11.41-4.85.41h-7.35v-2.59h7.06c1.94,0,3.64-.27,5.11-.81.43-.15.83-.33,1.22-.53,1.36-.69,2.46-1.64,3.31-2.86.24-.33.46-.69.66-1.06.91-1.73,1.36-3.79,1.36-6.19,0-2.69-.51-4.87-1.54-6.55-1.04-1.68-2.37-2.96-4-3.82-1.32-.7-2.74-1.22-4.24-1.55v-.04c0-.85-.09-1.65-.27-2.42.45-.19.9-.42,1.34-.67,1.25-.72,2.28-1.79,3.1-3.2.81-1.42,1.22-3.28,1.22-5.58,0-2.16-.4-4.01-1.19-5.55-.79-1.53-1.97-2.7-3.52-3.49-1.56-.79-3.5-1.19-5.8-1.19h-3.82V0h4.11c3.36,0,6.2.5,8.53,1.51s4.09,2.41,5.29,4.21c1.2,1.8,1.8,3.9,1.8,6.3,0,2.02-.38,3.78-1.15,5.29-.77,1.52-1.75,2.74-2.95,3.68-1.2.93-2.48,1.59-3.82,1.98,2.54.38,4.74,1.22,6.59,2.52,1.85,1.29,3.26,2.91,4.25,4.86.98,1.94,1.47,4.11,1.47,6.51Z"/>
  </g>
  <path class="cls-1" d="M39.86,48.12c-.37.21-.76.41-1.17.59-1.29.58-2.71,1-4.26,1.28-.27,3.32-1.53,6.07-3.8,8.25-2.57,2.47-6.16,3.71-10.76,3.71-2.07,0-3.89-.12-5.48-.36V15.51h.94c.78,0,1.52.04,2.22.12,1.88.22,3.44.73,4.68,1.54,1.93,1.26,3.07,3.23,3.42,5.91.03.23.05.46.07.7.03.39.05.8.05,1.23,0,3.36-.88,5.85-2.63,7.45-.29.27-.6.52-.91.74-1.37.99-2.93,1.54-4.68,1.65v.68c1.67.02,3.23.16,4.68.4,3.27.54,5.96,1.63,8.08,3.27,1.2.91,2.19,2.18,2.98,3.81.59,1.2.95,2.53,1.11,3.99.43-.15.83-.33,1.22-.53,1.36-.69,2.46-1.64,3.31-2.86-.6-1.61-1.52-3.07-2.72-4.38-2.45-2.66-6.02-4.33-10.73-5,1.11-.43,2.09-1.11,2.95-2.02,1.82-1.86,2.73-4.45,2.74-7.77v-.04c0-.85-.09-1.65-.27-2.42-.51-2.25-1.78-4.14-3.8-5.68-1.39-1.05-3.01-1.84-4.87-2.35-1.42-.4-2.98-.64-4.68-.72-.42-.02-.84-.03-1.28-.03H4.17v.72h.87c1.24,0,2.31.43,3.2,1.26.89.84,1.38,1.91,1.48,3.21v41.9c-5-2.11-7.97-6.74-8.93-13.89l-.79.14v.86c0,5.48,1.72,9.71,5.18,12.71s8.23,4.5,14.33,4.5,11.01-1.44,14.76-4.32c3.74-2.88,5.61-6.65,5.61-11.3,0-.29-.01-.59-.02-.87Z"/>
</svg>